<svg id="Layer_1" data-name="Layer 1" xmlns="http://www.w3.org/2000/svg" viewBox="0 0 76.25 62.14"><defs><style>.cls-1{fill:#ffc20e;}.cls-2{fill:#005e30;}.cls-3,.cls-4{fill:#231f20;}.cls-4{font-size:3.13px;font-family:Poppins-Bold, Poppins;font-weight:700;}</style></defs><title>Logo_update</title><path class="cls-1" d="M16.47,46H10.34l-1,3.34H5.16l6-18.19h4.56l6,18.19h-4.2Zm-1-3.37-2-6.74L11.36,42.6Z" transform="translate(-5.16 -0.97)"/><path class="cls-1" d="M36.05,34.85V49.31h-4V46.69a4.58,4.58,0,0,1-1.66,2,4.4,4.4,0,0,1-2.55.75,4.27,4.27,0,0,1-3.53-1.65A7.21,7.21,0,0,1,23,43.25v-8.4H27V42.7a3.47,3.47,0,0,0,.68,2.3,2.51,2.51,0,0,0,3.73,0,3.73,3.73,0,0,0,.7-2.44V34.85Z" transform="translate(-5.16 -0.97)"/><path class="cls-1" d="M47.39,36.05a6.15,6.15,0,0,1,1.84,3.62h-3.7a2.35,2.35,0,0,0-.73-1.38,2,2,0,0,0-1.42-.51,1.44,1.44,0,0,0-1,.33A1.18,1.18,0,0,0,42,39a1.08,1.08,0,0,0,.63,1,9.41,9.41,0,0,0,2,.68,17.86,17.86,0,0,1,2.43.79,4,4,0,0,1,1.64,1.31,3.84,3.84,0,0,1,.7,2.43,4,4,0,0,1-.6,2.2A4.16,4.16,0,0,1,47.08,49a6.16,6.16,0,0,1-2.68.54,6.41,6.41,0,0,1-4.19-1.29,5.67,5.67,0,0,1-1.91-3.71h3.81a2,2,0,0,0,.71,1.43,2.46,2.46,0,0,0,1.58.49,1.39,1.39,0,0,0,1-.35,1.26,1.26,0,0,0,.34-.92,1.13,1.13,0,0,0-.63-1.08,11.5,11.5,0,0,0-2.07-.68,15.63,15.63,0,0,1-2.36-.73,4,4,0,0,1-1.6-1.25A3.85,3.85,0,0,1,38.43,39a4,4,0,0,1,1.32-3.14,5.29,5.29,0,0,1,3.72-1.21A5.48,5.48,0,0,1,47.39,36.05Z" transform="translate(-5.16 -0.97)"/><path class="cls-2" d="M63.76,41.49a4.72,4.72,0,0,1,.87,2.82A4.83,4.83,0,0,1,63.23,48a5.62,5.62,0,0,1-4,1.32H51.61V31H59a5.63,5.63,0,0,1,3.87,1.22,4.4,4.4,0,0,1,1.36,3.47,4.57,4.57,0,0,1-.79,2.76,3.55,3.55,0,0,1-2,1.44A4,4,0,0,1,63.76,41.49Zm-8.19-3h2.59c1.37,0,2.05-.66,2.05-2s-.7-2-2.1-2H55.57Zm5,5.21A2,2,0,0,0,60,42.15a2.3,2.3,0,0,0-1.65-.56H55.57v4.12h2.82C59.85,45.71,60.58,45,60.58,43.69Z" transform="translate(-5.16 -0.97)"/><path class="cls-2" d="M80.39,44.89a7.7,7.7,0,0,1-3,3.25,8.61,8.61,0,0,1-4.55,1.17H66.71V31h6.17a8.77,8.77,0,0,1,4.56,1.14,7.55,7.55,0,0,1,3,3.22,11.56,11.56,0,0,1,0,9.54ZM76.13,44a5.41,5.41,0,0,0,1.29-3.86,5.42,5.42,0,0,0-1.29-3.86,4.68,4.68,0,0,0-3.59-1.37H70.66V45.35h1.88A4.65,4.65,0,0,0,76.13,44Z" transform="translate(-5.16 -0.97)"/><ellipse class="cls-1" cx="54.92" cy="17.82" rx="8.36" ry="8.24"/><path class="cls-1" d="M58,10.31S59.11,1.25,65.23,1C65.23,1,67.27,8,58,10.31Z" transform="translate(-5.16 -0.97)"/><path class="cls-1" d="M57.05,10.88S56.31,5.17,52.45,5C52.45,5,51.17,9.43,57.05,10.88Z" transform="translate(-5.16 -0.97)"/><path class="cls-2" d="M67.25,21.94c-.26,1.1-.51,2.2-.77,3.32L60.9,17l9.91,1.63L68,20.78l4.15,2.58-.78,1.23Z" transform="translate(-5.16 -0.97)"/><path class="cls-3" d="M20.9,61.39H17.63V53h2.91a3.71,3.71,0,0,1,1.31.21,1.81,1.81,0,0,1,.82.56,2.3,2.3,0,0,1,.51,1.46,1.85,1.85,0,0,1-.57,1.48l-.27.21-.26.14a1.87,1.87,0,0,1,1.1.7,2.09,2.09,0,0,1,.41,1.33,2.42,2.42,0,0,1-.53,1.56A2.6,2.6,0,0,1,20.9,61.39Zm-1.6-5h.79a2.43,2.43,0,0,0,1-.17.76.76,0,0,0,.34-.73.79.79,0,0,0-.31-.74,2.24,2.24,0,0,0-1-.18h-.8Zm0,3.42h1.14a2.33,2.33,0,0,0,1.08-.2.82.82,0,0,0,.35-.78.76.76,0,0,0-.38-.77,2.78,2.78,0,0,0-1.21-.19h-1Z" transform="translate(-5.16 -0.97)"/><path class="cls-3" d="M30.23,61.39l-.69-1.82H26.4l-.69,1.82H23.94L27.16,53h1.62L32,61.39ZM28,55.47,27,57.92h1.87Z" transform="translate(-5.16 -0.97)"/><path class="cls-3" d="M32.44,61.39V60.1l3.91-5.51H32.57V53h6.06v1.31l-3.9,5.48h4v1.64Z" transform="translate(-5.16 -0.97)"/><path class="cls-3" d="M45.47,61.39l-.69-1.82H41.64L41,61.39H39.18L42.4,53H44l3.23,8.43Zm-2.25-5.92-.94,2.45h1.87Z" transform="translate(-5.16 -0.97)"/><path class="cls-3" d="M53.43,61.39l-.69-1.82H49.61l-.7,1.82H47.14L50.37,53H52l3.23,8.43Zm-2.25-5.92-.94,2.45h1.87Z" transform="translate(-5.16 -0.97)"/><path class="cls-3" d="M62.13,55.76a2.52,2.52,0,0,1-1.42,2.62l1.89,3H60.55L58.89,58.7H57.74v2.69H56.07V53H58.9a3.73,3.73,0,0,1,2.49.67A2.74,2.74,0,0,1,62.13,55.76Zm-2,1a1.35,1.35,0,0,0,.31-1,1.12,1.12,0,0,0-.32-.94A1.85,1.85,0,0,0,59,54.58H57.74v2.5H59A1.61,1.61,0,0,0,60.12,56.76Z" transform="translate(-5.16 -0.97)"/><text class="cls-4" transform="translate(59.11 60.24)">TM</text></svg>