<?xml version="1.0"?>
<svg xmlns="http://www.w3.org/2000/svg" height="512px" viewBox="0 -16 480 480" width="512px"><path d="m288 288c4.417969 0 8-3.582031 8-8v-120c0-4.417969-3.582031-8-8-8h-248c-4.417969 0-8 3.582031-8 8v120c0 4.417969 3.582031 8 8 8zm-240-55.28125v-25.4375c20.101562-3.4375 35.84375-19.179688 39.28125-39.28125h153.4375c3.4375 20.101562 19.179688 35.84375 39.28125 39.28125v25.4375c-20.101562 3.4375-35.84375 19.179688-39.28125 39.28125h-153.4375c-3.4375-20.101562-19.179688-35.84375-39.28125-39.28125zm232 39.28125h-22.992188c2.933594-11.261719 11.730469-20.054688 22.992188-22.984375zm0-104v22.984375c-11.261719-2.929687-20.058594-11.722656-22.992188-22.984375zm-232 0h22.992188c-2.933594 11.261719-11.730469 20.054688-22.992188 22.984375zm0 104v-22.984375c11.261719 2.929687 20.058594 11.722656 22.992188 22.984375zm0 0" fill="#27b373"/><path d="m160 192c-17.671875 0-32 14.328125-32 32s14.328125 32 32 32 32-14.328125 32-32-14.328125-32-32-32zm0 48c-8.835938 0-16-7.164062-16-16s7.164062-16 16-16 16 7.164062 16 16-7.164062 16-16 16zm0 0" fill="#27b373"/><path d="m472 224h-25.441406l-14.71875-73.601562c-.761719-3.722657-4.039063-6.398438-7.839844-6.398438h-96v-16c0-4.417969-3.582031-8-8-8h-312c-4.417969 0-8 3.582031-8 8v224c0 4.417969 3.582031 8 8 8h49.703125c5.351563 18.929688 22.625 32 42.296875 32s36.945312-13.070312 42.296875-32h203.40625c5.351563 18.929688 22.625 32 42.296875 32s36.945312-13.070312 42.296875-32h41.703125c4.417969 0 8-3.582031 8-8v-120c0-4.417969-3.582031-8-8-8zm-144 80v-64h136v64zm-194.089844 16h220.179688c-5.644532 6.816406-9.09375 15.183594-9.890625 24h-200.398438c-.796875-8.816406-4.246093-17.183594-9.890625-24zm296.328125-96h-62.238281v-64h49.441406zm-78.238281-64v64h-24v-64zm-336-24h296v168h-296zm0 184h50.089844c-5.644532 6.816406-9.09375 15.183594-9.890625 24h-40.199219zm84 56c-15.464844 0-28-12.535156-28-28s12.535156-28 28-28 28 12.535156 28 28-12.535156 28-28 28zm288 0c-15.464844 0-28-12.535156-28-28s12.535156-28 28-28 28 12.535156 28 28-12.535156 28-28 28zm43.800781-32c-.796875-8.816406-4.246093-17.183594-9.890625-24h42.089844v24zm0 0" fill="#27b373"/><path d="m176 392h56v16h-56zm0 0" fill="#27b373"/><path d="m96 432h48v16h-48zm0 0" fill="#27b373"/><path d="m248 0h40v16h-40zm0 0" fill="#27b373"/><path d="m216 0h16v16h-16zm0 0" fill="#27b373"/><path d="m400 272h40v16h-40zm0 0" fill="#27b373"/><path d="m368 272h16v16h-16zm0 0" fill="#27b373"/><path d="m101.65625 109.65625 24-24c3.121094-3.125 3.121094-8.1875 0-11.3125l-24-24-11.3125 11.3125 10.34375 10.34375h-36.6875v16h36.6875l-10.34375 10.34375zm0 0" fill="#27b373"/><path d="m168 64h40v16h-40zm0 0" fill="#27b373"/><path d="m344 72h40v16h-40zm0 0" fill="#27b373"/><path d="m312 72h16v16h-16zm0 0" fill="#27b373"/></svg>
