<?xml version="1.0" encoding="iso-8859-1"?>
<!-- Generator: Adobe Illustrator 19.0.0, SVG Export Plug-In . SVG Version: 6.00 Build 0)  -->
<svg xmlns="http://www.w3.org/2000/svg" xmlns:xlink="http://www.w3.org/1999/xlink" version="1.1" id="Capa_1" x="0px" y="0px" viewBox="0 0 511.999 511.999" style="enable-background:new 0 0 511.999 511.999;" xml:space="preserve" width="512px" height="512px">
<g>
	<g>
		<path d="M181.331,35.6h-37.535c-4.144,0-7.502,3.358-7.502,7.502c0,4.144,3.358,7.502,7.502,7.502h37.535    c4.144,0,7.502-3.358,7.502-7.502C188.833,38.958,185.475,35.6,181.331,35.6z" fill="#27b373"/>
	</g>
</g>
<g>
	<g>
		<path d="M121.995,35.6h-13.46c-4.144,0-7.502,3.358-7.502,7.502c0,4.144,3.358,7.502,7.502,7.502h13.46    c4.144,0,7.502-3.358,7.502-7.502C129.497,38.958,126.139,35.6,121.995,35.6z" fill="#27b373"/>
	</g>
</g>
<g>
	<g>
		<path d="M144.933,429.45c-16.061,0-29.125,13.066-29.125,29.125c0,16.061,13.066,29.126,29.125,29.126    c16.06,0.001,29.126-13.065,29.126-29.126C174.058,442.515,160.993,429.45,144.933,429.45z M144.933,472.696    c-7.787,0.001-14.121-6.334-14.121-14.121c0-7.786,6.335-14.121,14.121-14.121c7.786,0,14.121,6.335,14.121,14.121    C159.054,466.362,152.719,472.696,144.933,472.696z" fill="#27b373"/>
	</g>
</g>
<g>
	<g>
		<path d="M503.679,150.228h-54.885c-4.144,0-7.502,3.358-7.502,7.502s3.358,7.502,7.502,7.502h47.383v181.535H203.142    c-4.144,0-7.502,3.358-7.502,7.502s3.358,7.502,7.502,7.502h38.831v43.855H47.892V84.918h31.6c4.144,0,7.502-3.358,7.502-7.502    c0-4.144-3.358-7.502-7.502-7.502H40.389c-4.143,0-7.502,3.358-7.502,7.502v335.713c0,4.144,3.359,7.502,7.502,7.502h209.086    c4.144,0,7.502-3.358,7.502-7.502v-51.357h17.064v107.803c0,15.119-12.301,27.421-27.42,27.421H43.244    c-15.119,0-27.421-12.302-27.421-27.421V42.425c0-15.119,12.302-27.421,27.421-27.421h203.377c15.119,0,27.42,12.302,27.42,27.421    v107.802h-17.064V77.416c0-4.144-3.358-7.502-7.502-7.502H109.501c-4.144,0-7.502,3.358-7.502,7.502    c0,4.144,3.358,7.502,7.502,7.502h132.474v65.31H120.203c-4.144,0-7.502,3.358-7.502,7.502v196.54    c0,4.144,3.358,7.502,7.502,7.502h52.93c4.144,0,7.502-3.358,7.502-7.502s-3.358-7.502-7.502-7.502h-45.428V165.232h291.08    c4.144,0,7.502-3.358,7.502-7.502s-3.358-7.502-7.502-7.502H289.046V42.425C289.046,19.032,270.015,0,246.622,0H43.244    C19.851,0,0.819,19.032,0.819,42.425v427.148c0,23.394,19.032,42.425,42.425,42.425h203.377c23.393,0,42.424-19.032,42.424-42.425    V361.772h214.633c4.144,0,7.502-3.358,7.502-7.502V157.73C511.181,153.586,507.823,150.228,503.679,150.228z" fill="#27b373"/>
	</g>
</g>
<g>
	<g>
		<path d="M478.885,200.079c-9.608,0-17.423-7.816-17.423-17.423c0-4.144-3.359-7.502-7.502-7.502H169.922    c-4.143,0-7.502,3.358-7.502,7.502c0,9.607-7.816,17.423-17.423,17.423c-4.144,0-7.502,3.358-7.502,7.502v96.839    c0,4.143,3.358,7.502,7.502,7.502c9.607,0,17.423,7.815,17.423,17.423c0,4.144,3.358,7.502,7.502,7.502h284.037    c4.143,0,7.502-3.358,7.502-7.502c0-9.607,7.815-17.423,17.423-17.423c4.144,0,7.502-3.359,7.502-7.502v-96.839    C486.387,203.437,483.029,200.079,478.885,200.079z M471.383,297.794c-11.867,2.821-21.228,12.182-24.049,24.049H176.548    c-2.821-11.867-12.182-21.228-24.049-24.049v-83.587c11.867-2.821,21.228-12.182,24.049-24.049h270.785    c2.821,11.867,12.182,21.228,24.049,24.049V297.794z" fill="#27b373"/>
	</g>
</g>
<g>
	<g>
		<path d="M311.941,197.842c-32.067,0-58.156,26.089-58.156,58.157c0,32.068,26.089,58.157,58.156,58.157    c32.068,0,58.157-26.089,58.157-58.157C370.098,223.931,344.009,197.842,311.941,197.842z M311.941,299.153    c-23.794,0-43.152-19.358-43.152-43.153s19.357-43.153,43.152-43.153c23.794,0,43.153,19.359,43.153,43.153    C355.094,279.794,335.735,299.153,311.941,299.153z" fill="#27b373"/>
	</g>
</g>
<g>
</g>
<g>
</g>
<g>
</g>
<g>
</g>
<g>
</g>
<g>
</g>
<g>
</g>
<g>
</g>
<g>
</g>
<g>
</g>
<g>
</g>
<g>
</g>
<g>
</g>
<g>
</g>
<g>
</g>
</svg>
