<svg id="scaner" enable-background="new 0 0 300 300" height="512" viewBox="0 0 300 300" width="512" xmlns="http://www.w3.org/2000/svg"><g><circle cx="164" cy="132" fill="#ffe8dc" r="86"/><path d="m79.657 127.656c-1.023 0-2.047-.391-2.828-1.172l-11.312-11.312c-1.562-1.562-1.562-4.094 0-5.656s4.094-1.562 5.656 0l11.312 11.312c1.562 1.562 1.562 4.094 0 5.656-.782.782-1.805 1.172-2.828 1.172z" fill="#4c241d"/><path d="m68.344 127.656c-1.023 0-2.047-.391-2.828-1.172-1.562-1.562-1.562-4.094 0-5.656l11.312-11.312c1.562-1.562 4.094-1.562 5.656 0s1.562 4.094 0 5.656l-11.312 11.312c-.781.782-1.804 1.172-2.828 1.172z" fill="#4c241d"/><path d="m118 70c-6.617 0-12-5.383-12-12s5.383-12 12-12 12 5.383 12 12-5.382 12-12 12zm0-16c-2.207 0-4 1.795-4 4s1.793 4 4 4 4-1.795 4-4-1.793-4-4-4z" fill="#4c241d"/><circle cx="178" cy="58" fill="#4c241d" r="4"/><g><path d="m248.816 234h-197.632c-5.072 0-9.184-4.112-9.184-9.184v-38.816h216v38.816c0 5.072-4.111 9.184-9.184 9.184z" fill="#6b4f5b"/><path d="m248.817 238h-197.633c-7.27 0-13.184-5.914-13.184-13.184v-38.816c0-2.209 1.789-4 4-4h216c2.211 0 4 1.791 4 4v38.816c0 7.27-5.914 13.184-13.183 13.184zm-202.817-48v34.816c0 2.857 2.324 5.184 5.184 5.184h197.633c2.859 0 5.184-2.326 5.184-5.184v-34.816z" fill="#4c241d"/></g><g><path d="m234 250h-168l-8-16h184z" fill="#b5a19c"/><path d="m234 254h-168c-1.516 0-2.898-.855-3.578-2.211l-8-16c-.621-1.24-.555-2.713.176-3.893.73-1.177 2.016-1.896 3.402-1.896h184c1.387 0 2.672.719 3.402 1.896.73 1.18.797 2.652.176 3.893l-8 16c-.679 1.356-2.062 2.211-3.578 2.211zm-165.527-8h163.055l4-8h-171.055z" fill="#4c241d"/></g><g><path d="m50 170h20v16h-20z" fill="#b5a19c"/><path d="m70 190h-20c-2.211 0-4-1.791-4-4v-16c0-2.209 1.789-4 4-4h20c2.211 0 4 1.791 4 4v16c0 2.209-1.789 4-4 4zm-16-8h12v-8h-12z" fill="#4c241d"/></g><g><path d="m70 170h-28l183.629-106.701 8.742 13.402z" fill="#6b4f5b"/><path d="m70 174h-28c-1.809 0-3.391-1.213-3.863-2.959-.469-1.746.289-3.592 1.855-4.5l183.629-106.701c1.836-1.072 4.195-.508 5.359 1.273l8.742 13.402c.602.924.797 2.057.535 3.129-.262 1.074-.953 1.99-1.914 2.535l-164.37 93.3c-.602.341-1.281.521-1.973.521zm-13.156-8h12.102l159.75-90.678-4.34-6.656z" fill="#4c241d"/></g><g><circle cx="234" cy="210" fill="#a9ba5a" r="8"/><path d="m234 222c-6.617 0-12-5.383-12-12s5.383-12 12-12 12 5.383 12 12-5.382 12-12 12zm0-16c-2.207 0-4 1.795-4 4s1.793 4 4 4 4-1.795 4-4-1.793-4-4-4z" fill="#4c241d"/></g><g><circle cx="210" cy="210" fill="#e66353" r="8"/><path d="m210 222c-6.617 0-12-5.383-12-12s5.383-12 12-12 12 5.383 12 12-5.382 12-12 12zm0-16c-2.207 0-4 1.795-4 4s1.793 4 4 4 4-1.795 4-4-1.793-4-4-4z" fill="#4c241d"/></g><g><path d="m58 202h16v16h-16z" fill="#e66353"/><path d="m74 222h-16c-2.211 0-4-1.791-4-4v-16c0-2.209 1.789-4 4-4h16c2.211 0 4 1.791 4 4v16c0 2.209-1.789 4-4 4zm-12-8h8v-8h-8z" fill="#4c241d"/></g><g fill="#4c241d"><path d="m186 158c-2.211 0-4-1.791-4-4v-12c0-2.209 1.789-4 4-4s4 1.791 4 4v12c0 2.209-1.789 4-4 4z"/><path d="m202 158c-1.023 0-2.047-.391-2.828-1.172-1.562-1.562-1.562-4.094 0-5.656l4-4c1.562-1.562 4.094-1.562 5.656 0s1.562 4.094 0 5.656l-4 4c-.781.781-1.804 1.172-2.828 1.172z"/><path d="m170 158c-1.023 0-2.047-.391-2.828-1.172l-4-4c-1.562-1.562-1.562-4.094 0-5.656s4.094-1.562 5.656 0l4 4c1.562 1.562 1.562 4.094 0 5.656-.781.781-1.804 1.172-2.828 1.172z"/><path d="m186 158c-2.211 0-4-1.791-4-4v-12c0-2.209 1.789-4 4-4s4 1.791 4 4v12c0 2.209-1.789 4-4 4z"/><path d="m202 158c-1.023 0-2.047-.391-2.828-1.172-1.562-1.562-1.562-4.094 0-5.656l4-4c1.562-1.562 4.094-1.562 5.656 0s1.562 4.094 0 5.656l-4 4c-.781.781-1.804 1.172-2.828 1.172z"/><path d="m170 158c-1.023 0-2.047-.391-2.828-1.172l-4-4c-1.562-1.562-1.562-4.094 0-5.656s4.094-1.562 5.656 0l4 4c1.562 1.562 1.562 4.094 0 5.656-.781.781-1.804 1.172-2.828 1.172z"/></g><g><path d="m94 174h144v12h-144z" fill="#ffce56"/><path d="m238 190h-144c-2.211 0-4-1.791-4-4v-12c0-2.209 1.789-4 4-4h144c2.211 0 4 1.791 4 4v12c0 2.209-1.789 4-4 4zm-140-8h136v-4h-136z" fill="#4c241d"/></g></g></svg>